<?xml version="1.0" encoding="UTF-8"?>
<svg width="100pt" height="100pt" version="1.1" viewBox="0 0 100 100" xmlns="http://www.w3.org/2000/svg">
 <path d="m54.457 33.473 25.852-32.961c0.16016-0.20703 0.011718-0.51172-0.25-0.51172h-38.938c-0.12109 0-0.23047 0.066406-0.28125 0.17578l-18.902 37.539c-0.10938 0.21484 0.054688 0.46875 0.30078 0.45703l14.699-0.76562-13.418 26.652c-0.10938 0.21484 0.054688 0.46875 0.30078 0.45703l13.316-0.69531c0.24219-0.011718 0.40625 0.24219 0.29688 0.45703l-17.773 35.262c-0.16016 0.3125 0.23828 0.61328 0.49609 0.375l42.555-39.062c0.21094-0.19531 0.074218-0.55078-0.21484-0.55078h-12c-0.26172 0-0.41016-0.30469-0.25-0.51172l19.836-25.297c0.16406-0.20703 0.015625-0.51172-0.25-0.51172h-15.129c-0.26172 0.003906-0.40625-0.29688-0.24609-0.50781z" fill="#d7b000"/>
</svg>
