<?xml version="1.0" encoding="UTF-8"?>
<svg width="100pt" height="100pt" version="1.1" viewBox="0 0 100 100" xmlns="http://www.w3.org/2000/svg">
 <path d="m50 12.5c-12.609-0.027344-24.375 6.3359-31.25 16.91v-8.5781h-6.25v20.832l20.832 0.003907v-6.25h-10.91c4.8203-9.0273 13.766-15.109 23.93-16.277 10.164-1.168 20.254 2.7305 26.996 10.43 6.7383 7.6953 9.2695 18.211 6.7695 28.133-2.4961 9.9219-9.7109 17.984-19.293 21.57-9.582 3.5859-20.312 2.2383-28.711-3.6055-8.3984-5.8438-13.395-15.438-13.363-25.668h-6.25c0 9.9453 3.9492 19.484 10.984 26.516 7.0312 7.0352 16.57 10.984 26.516 10.984s19.484-3.9492 26.516-10.984c7.0352-7.0312 10.984-16.57 10.984-26.516s-3.9492-19.484-10.984-26.516c-7.0312-7.0352-16.57-10.984-26.516-10.984z"/>
</svg>
