<?xml version="1.0" standalone="no"?>
<!DOCTYPE svg PUBLIC "-//W3C//DTD SVG 20010904//EN"
 "http://www.w3.org/TR/2001/REC-SVG-20010904/DTD/svg10.dtd">
<svg version="1.0" xmlns="http://www.w3.org/2000/svg"
 width="765.000000pt" height="498.000000pt" viewBox="0 0 765.000000 498.000000"
 preserveAspectRatio="xMidYMid meet" fill="#000000">
<style>
  g {
    fill: #012452;
  }
  @media (prefers-color-scheme: dark) {
    g { fill: #fdfdfd; }
  }
</style>
<g transform="translate(0.000000,498.000000) scale(0.100000,-0.100000)" stroke="none">
<path d="M3560 4943 c0 -29 -8 -43 -40 -75 -32 -30 -37 -38 -22 -38 17 0 20
-10 25 -82 4 -46 7 -102 7 -124 0 -32 7 -49 29 -73 35 -38 89 -43 109 -11 11
18 10 20 -15 20 -57 1 -63 15 -63 149 l0 121 51 0 c43 0 50 3 47 18 -2 13 -15
18 -56 20 l-52 3 0 55 c0 29 -4 54 -10 54 -5 0 -10 -16 -10 -37z"/>
<path d="M4385 4939 c3 -14 -18 -115 -49 -239 -30 -118 -51 -218 -48 -222 4
-4 19 -10 35 -13 24 -6 27 -4 27 16 0 27 45 208 54 216 3 3 66 -9 141 -28 133
-33 135 -33 135 -61 0 -30 -36 -172 -51 -200 -8 -14 -4 -19 18 -24 16 -3 36
-8 45 -10 12 -4 15 0 11 16 -7 25 84 396 104 429 13 20 13 25 2 32 -8 5 -22 9
-31 9 -9 0 -24 3 -33 7 -14 5 -16 2 -12 -13 10 -33 -27 -169 -47 -172 -17 -4
-110 16 -213 45 -41 11 -53 19 -53 34 0 38 33 154 47 165 11 9 6 13 -22 18
-20 4 -43 10 -51 13 -12 4 -14 0 -9 -18z"/>
<path d="M2632 4901 c-66 -23 -123 -68 -134 -107 -6 -20 -3 -42 7 -71 20 -51
48 -66 179 -93 111 -23 136 -41 136 -97 -1 -72 -50 -103 -165 -103 -41 0 -75
-3 -75 -6 0 -17 38 -50 55 -48 76 10 101 17 137 35 47 24 99 69 93 80 -3 4 0
9 6 11 16 5 21 80 7 107 -19 35 -70 58 -183 80 -124 25 -150 51 -129 128 8 29
70 53 139 53 56 0 69 12 43 38 -17 17 -54 14 -116 -7z"/>
<path d="M2930 4871 c0 -39 -6 -56 -26 -80 -24 -29 -25 -31 -5 -31 15 0 22 -8
26 -37 21 -126 38 -191 54 -213 23 -31 83 -49 105 -30 20 16 20 30 1 30 -8 0
-25 5 -39 11 -26 12 -34 35 -59 171 -16 87 -15 88 53 88 33 0 37 3 33 20 -4
17 -14 20 -58 20 l-52 0 -7 50 c-9 64 -26 65 -26 1z"/>
<path d="M3800 4846 c-25 -13 -46 -31 -48 -40 -2 -9 -7 -16 -12 -16 -4 0 -15
-21 -24 -47 -35 -103 36 -200 171 -232 55 -14 110 -4 132 23 9 10 -4 13 -62
12 -113 0 -166 38 -175 124 -4 40 -2 49 9 46 8 -3 71 -7 142 -9 l127 -5 0 33
c0 66 -89 135 -172 135 -27 0 -61 -9 -88 -24z m158 -46 c12 -12 22 -30 22 -42
0 -18 -4 -20 -31 -14 -17 3 -58 6 -90 6 -65 0 -73 9 -37 47 29 31 104 32 136
3z"/>
<path d="M3213 4850 c-13 -5 -23 -16 -23 -23 0 -11 12 -13 49 -9 65 6 91 -9
91 -54 0 -38 -3 -40 -103 -70 -60 -18 -107 -55 -107 -84 0 -57 12 -76 62 -99
54 -25 92 -22 114 7 11 15 7 18 -39 22 -45 4 -54 9 -65 33 -23 48 -5 78 63
104 33 13 65 23 71 23 8 0 15 -25 19 -66 8 -72 31 -109 75 -119 20 -4 27 0 37
20 10 22 9 25 -7 25 -29 0 -37 20 -48 126 -7 56 -14 108 -18 117 -15 41 -119
69 -171 47z"/>
<path d="M4926 4615 c-89 -31 -142 -106 -132 -184 11 -84 109 -170 194 -171
111 -1 208 116 180 217 -28 104 -148 172 -242 138z m130 -61 c66 -44 55 -179
-18 -224 -51 -31 -94 -26 -134 14 -30 30 -34 40 -34 86 0 119 96 183 186 124z"/>
<path d="M2155 4570 c-83 -19 -155 -100 -155 -175 0 -65 53 -141 113 -164 81
-31 221 11 255 76 19 35 14 36 -29 1 -37 -30 -48 -33 -117 -36 -68 -3 -80 0
-104 20 -15 13 -30 35 -34 51 -6 25 -3 29 42 48 128 55 190 84 196 93 3 5 -1
20 -10 32 -34 45 -99 67 -157 54z m66 -60 c10 -6 19 -15 19 -20 0 -10 -115
-66 -157 -76 -21 -6 -22 -4 -13 28 19 65 93 98 151 68z"/>
<path d="M5280 4475 c0 -13 -25 -71 -54 -129 -49 -94 -54 -108 -45 -138 11
-39 71 -97 102 -100 12 0 34 0 50 1 21 2 27 -2 27 -17 0 -10 11 -24 25 -30 34
-15 35 -15 35 6 0 10 4 22 9 27 12 14 131 243 131 254 0 5 -8 11 -17 15 -10 3
-23 8 -29 11 -7 4 -15 -6 -19 -22 -6 -26 -24 -68 -64 -151 -31 -64 -116 -83
-165 -37 -23 22 -27 32 -25 73 1 26 8 54 14 62 17 21 98 171 93 173 -1 2 -18
8 -35 14 -31 11 -33 10 -33 -12z"/>
<path d="M1857 4426 c-15 -14 -27 -32 -27 -41 0 -17 -25 -21 -35 -5 -4 6 -15
3 -29 -7 l-24 -18 28 -40 c15 -22 42 -69 61 -105 19 -36 37 -67 41 -68 5 -2
11 -21 14 -43 4 -21 9 -39 12 -39 8 0 72 41 72 46 0 3 -4 3 -8 0 -5 -3 -32 35
-61 84 -48 81 -52 93 -49 142 3 50 5 54 36 64 33 10 33 11 15 33 l-18 23 -28
-26z"/>
<path d="M3401 4259 c-52 -5 -133 -16 -180 -24 -47 -8 -100 -17 -117 -19 -82
-10 -193 -40 -198 -53 -4 -10 -1 -13 12 -9 119 37 371 74 581 86 245 14 469 2
683 -35 44 -8 84 -12 89 -10 4 3 10 1 13 -4 5 -7 51 -18 121 -27 6 0 17 -4 25
-7 8 -3 35 -11 60 -17 247 -63 586 -207 792 -337 21 -12 39 -23 41 -23 3 0 34
-20 70 -44 125 -84 202 -141 215 -158 7 -10 19 -18 27 -18 7 0 23 -12 34 -26
12 -15 21 -23 21 -19 0 4 20 -12 44 -36 24 -24 91 -90 149 -147 59 -56 110
-109 114 -116 4 -8 32 -40 60 -72 29 -33 58 -66 65 -74 32 -37 208 -293 221
-320 4 -8 28 -51 52 -95 25 -44 57 -105 71 -135 14 -30 32 -62 41 -72 9 -10
13 -18 10 -18 -5 0 4 -23 53 -135 10 -22 31 -78 46 -125 16 -47 31 -87 34 -90
3 -3 5 -9 6 -15 1 -28 17 -86 25 -91 5 -3 7 -9 4 -14 -3 -5 -1 -20 5 -35 18
-48 68 -295 75 -375 3 -25 9 -92 15 -149 15 -155 12 -418 -6 -592 -10 -85 -17
-165 -18 -179 -1 -14 -4 -29 -8 -35 -5 -8 -16 -68 -24 -130 0 -5 -3 -17 -6
-25 -15 -38 -34 -140 -27 -140 12 0 17 12 33 86 8 38 22 99 30 135 48 218 70
521 55 769 -5 96 -14 202 -20 235 -5 33 -12 80 -15 104 -2 23 -8 50 -13 60 -4
9 -9 33 -9 55 -1 21 -6 44 -12 51 -5 6 -8 14 -5 17 4 4 -38 176 -52 208 -3 8
-7 21 -9 28 -1 8 -6 21 -10 30 -4 9 -8 20 -9 25 -2 4 -3 8 -4 10 -2 1 -4 13
-7 27 -4 27 -9 40 -79 210 -26 63 -52 118 -59 122 -6 4 -8 8 -4 8 11 0 -119
243 -158 297 -13 17 -24 36 -24 42 0 5 -6 14 -13 18 -7 4 -18 19 -25 33 -12
24 -57 89 -112 159 -177 229 -399 450 -607 604 -114 84 -133 97 -133 93 0 -3
-11 6 -25 19 -14 13 -41 30 -59 39 -19 9 -58 32 -87 52 -56 37 -229 128 -229
119 0 -2 -16 7 -36 20 -20 14 -43 26 -50 26 -20 2 -24 3 -89 33 -70 33 -152
64 -180 69 -11 2 -28 7 -37 11 -9 4 -22 8 -30 10 -7 1 -17 4 -23 8 -11 6 -91
30 -115 33 -8 1 -22 5 -30 8 -23 10 -193 46 -242 52 -23 3 -86 12 -138 20
-118 18 -531 27 -659 14z"/>
<path d="M1564 4248 c-41 -13 -98 -62 -92 -79 3 -9 10 -7 24 7 28 28 53 37 94
34 44 -2 43 -2 42 -47 -1 -30 -9 -45 -39 -73 -86 -79 -100 -118 -58 -168 42
-51 105 -50 163 1 30 28 31 54 0 33 -27 -19 -99 -21 -116 -4 -7 7 -12 28 -12
48 0 27 10 45 39 78 22 23 45 42 53 42 7 0 26 -20 42 -45 15 -25 38 -52 49
-60 24 -17 67 -20 67 -5 0 5 6 9 12 7 7 -1 14 8 16 21 3 20 -1 22 -38 22 -33
0 -43 4 -47 20 -3 11 -9 20 -14 20 -5 0 -9 4 -9 10 0 12 -87 132 -104 142 -14
10 -33 9 -72 -4z"/>
<path d="M5625 4235 c-14 -13 -25 -36 -25 -50 0 -28 26 -85 38 -85 5 0 18 -17
30 -39 36 -63 26 -121 -20 -121 -33 0 -95 38 -132 81 -35 42 -36 42 -36 16 0
-40 65 -99 135 -121 l57 -18 39 26 c64 43 60 80 -21 191 -43 58 -39 105 9 105
25 0 120 -56 113 -67 -8 -12 6 -12 16 0 9 11 5 20 -18 40 -16 15 -34 27 -40
27 -5 0 -10 4 -10 9 0 11 -55 31 -87 31 -13 0 -35 -11 -48 -25z"/>
<path d="M6002 4188 c-25 -25 -6 -68 30 -68 9 0 22 9 28 21 9 16 8 25 -6 40
-20 22 -35 24 -52 7z"/>
<path d="M2845 4158 c-16 -5 -37 -12 -45 -15 -8 -3 -21 -7 -28 -9 -8 -1 -21
-6 -30 -10 -9 -4 -20 -8 -24 -9 -5 -2 -9 -3 -10 -4 -2 -2 -14 -4 -28 -7 -34
-5 -193 -65 -205 -77 -6 -6 -1 -8 15 -4 33 7 244 80 250 87 3 3 10 5 15 6 27
1 86 17 90 25 3 4 12 6 19 3 15 -6 32 12 19 19 -5 2 -21 0 -38 -5z"/>
<path d="M1324 4085 c-16 -12 -16 -14 -3 -15 16 0 25 -18 35 -65 3 -10 8 -22
12 -25 4 -3 9 -14 10 -25 2 -11 9 -23 15 -27 7 -4 9 -8 5 -8 -3 0 0 -20 8 -45
7 -25 12 -45 11 -46 -12 -5 -47 -4 -47 2 0 4 -19 17 -42 29 -68 35 -107 57
-121 68 -14 12 -58 12 -51 1 2 -4 -3 -10 -12 -13 -14 -5 -14 -8 0 -33 15 -27
36 -77 42 -98 1 -5 8 -23 15 -40 19 -46 22 -85 7 -85 -16 0 -222 102 -226 113
-6 13 -19 8 -26 -10 -3 -10 -9 -24 -12 -30 -3 -8 2 -13 13 -13 10 0 57 -22
104 -49 92 -53 187 -88 212 -78 17 6 16 9 -43 167 -11 30 -20 65 -20 78 0 29
15 25 103 -25 97 -55 186 -82 157 -48 -7 8 -10 15 -7 15 7 0 -2 29 -61 193
-25 70 -48 127 -52 127 -3 0 -15 -7 -26 -15z"/>
<path d="M5930 4082 c0 -10 -15 -36 -33 -58 -18 -21 -51 -64 -72 -94 -48 -66
-71 -90 -87 -90 -7 -1 3 -14 22 -31 l35 -30 7 33 c3 18 11 34 16 36 6 2 36 38
68 80 32 42 69 89 83 104 13 15 23 29 20 31 -2 2 -16 11 -31 20 -27 17 -28 17
-28 -1z"/>
<path d="M2368 3983 c-41 -21 -82 -39 -89 -41 -8 -2 -17 -9 -21 -15 -4 -7 -8
-9 -8 -5 0 4 -22 -5 -49 -21 -27 -16 -75 -44 -107 -62 -59 -32 -101 -59 -161
-101 -17 -13 -63 -45 -102 -71 -39 -27 -75 -56 -80 -65 -5 -9 -13 -15 -16 -13
-20 10 -334 -287 -453 -430 -34 -41 -69 -82 -77 -91 -8 -10 -15 -22 -15 -27 0
-5 -7 -11 -15 -15 -8 -3 -15 -10 -15 -16 0 -6 -9 -20 -20 -32 -22 -24 -100
-136 -100 -144 0 -3 -11 -20 -24 -37 -55 -74 -179 -314 -166 -322 9 -6 14 7
11 28 0 4 4 7 10 7 5 0 7 5 4 10 -3 6 -2 10 3 10 5 0 12 8 15 18 19 57 221
383 274 442 13 14 23 28 23 32 0 4 10 18 23 32 12 13 33 39 47 56 14 17 46 55
72 83 26 29 48 58 48 64 0 7 6 12 13 10 6 -1 11 4 10 11 -2 6 2 12 8 12 6 0
37 26 68 58 117 119 321 288 414 343 20 13 37 26 37 31 0 4 5 8 12 8 6 0 25
10 42 23 77 56 331 192 444 237 17 7 32 16 32 21 0 15 -13 11 -92 -28z"/>
<path d="M6070 3967 c0 -7 -26 -39 -57 -72 -32 -33 -67 -72 -78 -86 -11 -14
-34 -36 -52 -49 l-32 -23 31 -23 31 -23 19 36 c11 20 34 50 52 67 18 17 35 36
37 41 7 16 73 60 89 59 8 -1 20 -2 27 -3 6 0 26 -13 43 -27 28 -24 31 -32 29
-75 -2 -27 -7 -49 -12 -49 -6 0 -8 -2 -5 -5 9 -9 -121 -143 -145 -151 -20 -6
-19 -8 13 -36 33 -27 35 -28 40 -9 3 11 28 44 55 74 121 129 130 148 97 214
-23 44 -57 70 -103 80 -22 4 -29 10 -26 23 3 10 -6 22 -24 33 -20 11 -29 12
-29 4z"/>
<path d="M6319 3611 c-33 -32 -37 -44 -38 -105 -1 -37 -2 -38 -31 -33 -23 5
-32 2 -41 -14 -12 -23 -3 -40 55 -102 19 -21 36 -41 37 -45 1 -4 6 -18 11 -31
12 -33 7 -73 -12 -88 -44 -36 -131 -1 -182 72 -39 57 -35 145 7 145 8 0 15 4
15 9 0 13 -26 32 -33 24 -4 -3 -7 -1 -7 5 0 20 -38 13 -54 -10 -22 -31 -20
-58 7 -120 46 -102 179 -208 242 -192 36 9 75 59 75 98 0 34 -41 107 -78 140
-27 23 -29 56 -4 56 9 0 34 -11 55 -26 47 -32 107 -53 127 -45 32 12 59 38 69
64 12 32 36 35 51 7 12 -22 50 -28 50 -7 0 6 -24 38 -53 70 -28 32 -63 72 -76
89 -28 35 -92 67 -134 68 -17 0 -39 -11 -58 -29z m146 -56 c33 -32 34 -89 3
-122 -28 -30 -60 -29 -95 1 -22 19 -28 32 -28 66 0 73 70 106 120 55z"/>
<path d="M860 3623 c-31 -12 -100 -64 -110 -84 -6 -11 -8 -29 -4 -41 6 -19 8
-18 22 13 9 19 23 39 32 44 17 11 99 24 98 15 -1 -3 2 -13 7 -23 10 -24 -11
-94 -37 -121 -28 -29 -40 -66 -33 -96 8 -29 34 -62 46 -55 4 3 10 1 14 -5 19
-31 130 22 142 67 8 35 -2 38 -30 9 -19 -19 -37 -26 -65 -26 -46 0 -62 14 -62
54 0 28 48 136 60 136 4 0 33 -20 64 -45 66 -51 82 -54 120 -24 34 26 21 45
-27 41 -24 -2 -41 4 -64 25 -82 75 -143 124 -152 122 -3 0 -13 -3 -21 -6z"/>
<path d="M492 3450 c-16 -26 -15 -30 6 -30 10 0 23 -5 30 -12 7 -7 12 -9 12
-5 0 4 10 -2 23 -12 12 -11 36 -31 52 -45 17 -14 36 -26 44 -26 8 0 12 -3 8
-6 -3 -4 29 -31 71 -61 42 -30 90 -68 106 -86 18 -19 31 -27 34 -19 2 7 10 19
18 26 17 18 18 26 2 26 -7 0 -53 31 -102 68 -49 37 -96 72 -104 77 -8 6 -26
20 -40 33 -14 12 -28 22 -32 22 -3 0 -24 16 -46 35 -45 40 -64 43 -82 15z"/>
<path d="M3185 3392 c-148 -33 -248 -102 -282 -195 -19 -52 -15 -133 8 -183
24 -54 121 -150 167 -165 17 -6 32 -14 32 -19 0 -5 10 -12 22 -16 13 -4 56
-22 98 -42 41 -19 84 -38 95 -43 24 -11 49 -26 94 -58 60 -43 88 -144 61 -216
-36 -96 -200 -146 -372 -115 -62 11 -173 52 -188 69 -9 10 -50 31 -50 26 0
-24 34 -143 44 -157 17 -24 120 -47 241 -54 84 -6 114 -3 184 15 47 11 87 24
90 29 3 4 12 8 20 10 7 1 37 18 66 36 59 38 124 111 142 159 16 45 16 141 -1
182 -14 33 -120 145 -138 145 -5 0 -27 12 -51 27 -23 14 -42 25 -42 24 0 -5
-56 20 -165 73 -151 73 -190 118 -190 220 0 132 157 186 385 132 12 -3 73 -34
101 -52 20 -14 20 -13 17 49 -7 106 -3 102 -85 115 -132 22 -217 23 -303 4z"/>
<path d="M1850 3348 c20 -32 20 -48 20 -532 -1 -480 -1 -500 -20 -524 -11 -13
-20 -29 -20 -34 0 -16 569 -5 605 12 17 7 33 13 38 12 4 -1 7 2 7 6 0 4 9 8
20 9 11 1 33 11 49 22 16 12 34 21 41 21 11 0 126 114 164 161 36 47 84 167
96 242 14 85 2 200 -28 267 -8 19 -14 38 -14 43 1 4 -3 7 -8 7 -5 0 -9 3 -8 8
8 42 -107 168 -210 229 -121 72 -172 80 -485 82 l-267 2 20 -33z m447 -98
c187 -25 315 -136 354 -307 15 -68 13 -219 -5 -275 -42 -140 -155 -242 -313
-283 -34 -9 -102 -15 -170 -15 l-113 0 0 434 0 435 58 6 c31 3 64 8 72 9 28 6
38 6 117 -4z"/>
<path d="M3730 3375 c0 -2 9 -19 20 -37 19 -32 20 -51 20 -520 0 -501 -2 -524
-40 -555 -12 -10 12 -12 118 -13 72 0 132 2 132 5 0 2 -9 19 -20 37 -18 31
-20 51 -20 276 l0 242 320 0 320 0 0 -237 c0 -226 -8 -303 -32 -303 -4 0 -8
-4 -8 -10 0 -6 48 -10 124 -10 l124 0 -19 40 c-18 37 -19 67 -19 519 0 490 1
509 38 554 14 16 8 17 -116 17 -73 0 -132 -1 -132 -3 0 -1 9 -20 20 -42 18
-35 20 -59 20 -227 l0 -188 -321 0 -320 0 3 204 c3 201 3 205 27 230 l24 26
-131 0 c-73 0 -132 -2 -132 -5z"/>
<path d="M5335 3323 c0 -48 -11 -87 -63 -218 -35 -88 -72 -178 -82 -200 -10
-22 -40 -96 -68 -165 -121 -301 -151 -372 -169 -397 -10 -14 -23 -34 -29 -45
-6 -10 -20 -25 -30 -33 -17 -13 -4 -14 106 -14 69 0 119 3 113 6 -26 10 -14
96 33 228 25 72 51 145 57 163 l10 32 227 0 227 0 38 -97 c97 -252 109 -295
83 -321 -9 -9 19 -12 126 -12 l138 0 -36 44 c-20 24 -36 46 -36 49 0 2 -26 60
-59 128 -32 68 -88 203 -126 299 -112 292 -136 353 -156 397 -10 24 -19 49
-19 56 0 7 -4 17 -8 23 -5 5 -19 37 -33 72 l-24 62 -110 0 -110 0 0 -57z m188
-310 l75 -198 -155 -3 c-86 -1 -158 0 -160 2 -7 7 148 396 157 396 4 0 41 -89
83 -197z"/>
<path d="M583 3243 c-13 -2 -23 -9 -23 -14 0 -5 -9 -9 -19 -9 -23 0 -78 -61
-97 -106 -18 -44 -12 -115 15 -152 11 -17 21 -34 21 -39 0 -10 63 -33 111 -40
92 -13 248 137 219 210 -5 12 -10 18 -11 12 -1 -5 -3 -14 -4 -20 -6 -30 -36
-83 -50 -89 -9 -3 -13 -11 -10 -16 4 -6 3 -10 -2 -9 -4 1 -25 -5 -45 -14 -64
-29 -148 -16 -148 21 0 10 14 41 32 68 18 27 49 75 70 107 21 32 38 60 38 63
0 4 -71 35 -74 33 0 -1 -11 -4 -23 -6z m21 -71 c3 -5 -18 -44 -46 -87 l-50
-79 -15 28 c-21 40 -9 89 28 120 30 25 73 34 83 18z"/>
<path d="M7008 3059 c-64 -15 -401 -61 -440 -60 -21 0 -38 -1 -38 -4 0 -13 38
-65 41 -57 3 9 179 46 184 39 27 -34 95 -171 91 -182 -10 -28 -101 -135 -114
-135 -9 0 -7 -12 9 -40 13 -22 26 -40 30 -40 3 0 13 15 20 32 7 18 33 56 56
85 24 29 43 57 43 62 0 5 6 11 13 14 7 3 26 24 42 48 17 24 44 59 62 78 18 18
33 37 33 41 0 5 11 21 24 35 l25 26 -21 35 c-11 19 -21 34 -21 33 -1 -1 -19
-5 -39 -10z m-8 -63 c0 -8 -3 -16 -8 -18 -4 -1 -29 -31 -56 -66 l-49 -62 -30
52 c-16 29 -34 56 -40 59 -18 12 33 30 96 35 34 3 63 7 66 10 9 9 21 3 21 -10z"/>
<path d="M270 2941 c-88 -22 -143 -78 -208 -211 -47 -94 -49 -100 -26 -100 9
0 43 -15 77 -34 34 -19 109 -55 167 -81 58 -26 119 -58 137 -71 33 -25 48 -31
39 -15 -4 5 -2 11 2 13 7 2 74 131 78 148 0 3 6 18 12 33 28 67 0 193 -52 236
-9 8 -16 20 -16 27 0 8 -3 13 -7 12 -5 -1 -22 5 -39 15 -29 15 -45 19 -114 31
-14 2 -36 1 -50 -3z m95 -87 c122 -41 168 -158 110 -281 -13 -29 -26 -53 -28
-53 -2 0 -79 36 -170 80 -117 56 -167 85 -167 97 0 25 37 97 63 121 56 53 112
63 192 36z"/>
<path d="M7085 2631 c-6 -4 -53 -25 -105 -46 -99 -39 -155 -81 -162 -120 -7
-36 17 -95 52 -127 24 -21 31 -34 26 -51 -3 -12 -3 -32 0 -44 6 -20 8 -21 28
-8 11 7 57 27 101 45 44 18 94 38 110 45 17 7 41 16 54 20 20 6 22 12 17 38
-8 40 -12 43 -33 26 -39 -33 -140 -73 -193 -77 -72 -5 -100 15 -107 79 -7 64
18 86 162 139 17 6 74 31 83 36 6 3 -10 54 -17 54 -4 0 -11 -4 -16 -9z"/>
<path d="M834 2462 c4 -7 3 -12 -1 -12 -10 0 -43 -69 -43 -88 0 -7 -16 -12
-38 -12 -34 0 -46 -8 -120 -84 l-82 -84 0 -346 c0 -386 1 -381 -65 -309 -19
21 -36 35 -39 33 -4 -5 -11 -73 -27 -290 -9 -122 -8 -172 7 -375 2 -33 5 -67
5 -75 3 -64 23 -197 31 -207 5 -7 7 -16 5 -20 -10 -17 66 -347 85 -370 6 -7 8
-13 5 -13 -6 0 28 -113 43 -140 10 -18 28 -19 579 -19 l570 -1 -6 35 c-5 32
-3 35 18 35 13 0 34 3 47 6 22 6 22 7 22 215 0 200 -1 209 -19 209 -27 0 -212
-30 -231 -37 -8 -4 -19 -7 -25 -7 -13 -1 -26 -73 -22 -118 4 -33 1 -38 -17
-38 -13 0 -32 15 -48 39 -23 32 -28 50 -28 96 l0 56 -50 -2 c-40 -2 -53 1 -65
17 -30 40 -20 49 51 46 61 -4 66 -2 60 14 -4 10 -9 126 -12 259 -3 132 -7 241
-8 242 -4 4 -181 -59 -193 -69 -7 -6 -13 -7 -13 -3 0 4 -6 2 -14 -4 -10 -9
-12 -42 -8 -156 3 -103 2 -145 -6 -145 -12 0 -82 64 -82 74 0 4 -13 21 -29 39
-16 17 -38 42 -48 53 -57 67 -117 135 -147 167 -34 38 -39 67 -15 95 8 9 23
33 32 52 10 19 32 58 48 85 16 28 35 61 41 75 7 14 23 39 35 56 13 17 23 34
23 38 0 3 20 39 43 79 24 39 57 97 73 127 16 30 31 57 34 60 6 6 17 25 59 103
15 29 46 81 67 117 22 36 48 82 59 103 11 20 26 37 34 37 13 0 71 -53 71 -65
0 -3 11 -18 24 -33 14 -15 37 -45 52 -67 15 -22 35 -46 45 -53 11 -7 19 -18
19 -23 0 -6 6 -17 13 -24 13 -16 18 -21 67 -85 19 -25 41 -51 48 -59 7 -8 21
-26 30 -40 23 -35 44 -61 65 -80 9 -8 17 -21 17 -27 0 -7 3 -14 8 -16 9 -4 80
-91 112 -138 13 -19 32 -42 42 -51 10 -9 18 -19 18 -23 0 -3 11 -19 24 -34 14
-15 37 -45 52 -67 15 -22 35 -46 45 -53 11 -7 19 -18 19 -23 0 -6 6 -16 13
-24 6 -7 21 -25 32 -41 11 -15 33 -41 48 -58 16 -17 35 -43 43 -59 8 -15 18
-27 22 -27 4 0 15 -12 24 -28 9 -15 27 -39 40 -54 13 -14 45 -56 71 -92 27
-36 60 -78 73 -93 14 -15 32 -40 42 -55 9 -16 19 -28 23 -28 4 0 23 -24 43
-54 19 -29 46 -64 60 -77 14 -13 26 -29 26 -34 0 -6 18 -29 39 -53 21 -23 42
-49 45 -57 3 -8 9 -15 13 -15 5 0 19 -18 33 -40 14 -22 28 -40 32 -40 4 0 17
-18 29 -40 13 -22 26 -40 31 -40 4 0 19 -18 33 -40 l25 -40 594 1 c327 0 607
4 622 8 l29 7 3 98 3 98 -53 -7 c-77 -9 -88 -14 -88 -36 0 -26 -32 -24 -50 3
-8 13 -13 26 -12 31 1 4 -3 7 -8 7 -6 0 -10 11 -10 25 0 14 5 25 12 25 8 0 9
30 5 112 -4 61 -9 113 -12 116 -2 3 -25 -3 -50 -12 -44 -17 -45 -19 -45 -62 0
-50 -18 -59 -43 -20 -9 13 -29 38 -45 56 -17 18 -38 47 -47 64 -21 38 -13 60
52 153 13 17 23 34 23 38 0 3 16 31 35 61 19 30 35 59 35 64 0 6 4 10 8 10 5
0 22 24 37 52 16 29 38 67 50 83 12 17 25 38 28 47 10 28 29 21 62 -19 17 -20
42 -50 56 -67 14 -17 44 -56 66 -87 23 -31 48 -62 55 -70 8 -8 24 -30 38 -49
13 -19 37 -51 54 -71 63 -73 76 -89 70 -89 -3 0 19 -29 50 -64 31 -35 56 -68
56 -74 0 -6 3 -12 8 -14 4 -1 27 -30 52 -63 25 -33 49 -63 53 -66 4 -3 18 -19
30 -36 23 -31 121 -159 156 -203 l20 -25 340 -5 341 -5 0 43 c0 38 -2 42 -25
42 -18 0 -26 -7 -31 -24 -4 -17 -11 -22 -25 -19 -10 3 -19 14 -19 24 0 11 -4
19 -8 19 -5 0 -9 7 -9 15 0 8 4 15 8 15 14 0 9 98 -6 103 -18 8 -25 -2 -25
-34 0 -15 -5 -31 -10 -34 -20 -12 -130 119 -130 154 0 8 10 28 23 45 13 17 27
38 30 46 4 8 17 31 30 51 12 19 31 50 42 67 10 18 26 32 35 32 15 0 70 -55 70
-70 0 -4 7 -13 15 -20 8 -6 31 -37 52 -68 20 -32 47 -68 59 -82 13 -14 44 -57
71 -96 26 -39 71 -100 98 -136 l50 -66 147 -1 147 -1 -19 33 c-11 18 -34 48
-51 67 -17 19 -37 49 -45 67 -7 17 -17 33 -21 35 -5 1 -26 26 -48 53 -22 28
-43 52 -47 53 -5 2 -8 8 -8 14 0 11 -52 81 -81 110 -10 10 -22 24 -26 33 -9
15 -168 67 -177 57 -3 -3 -11 0 -18 5 -13 11 -183 63 -204 63 -6 0 -16 -11
-22 -25 -16 -36 -40 -32 -44 7 -2 27 -9 34 -37 42 -30 9 -36 7 -57 -18 -21
-24 -24 -37 -24 -117 0 -104 -8 -110 -61 -47 -71 87 -158 196 -239 303 -96
126 -141 173 -173 177 -12 2 -26 6 -32 10 -9 5 -149 45 -186 52 -8 2 -21 6
-29 9 -20 8 -221 66 -246 70 -10 2 -26 7 -34 10 -8 4 -24 8 -35 10 -11 2 -32
9 -46 15 -23 9 -89 25 -111 27 -3 0 -10 3 -14 8 -16 16 -35 5 -65 -40 -55 -81
-69 -79 -69 7 0 66 4 63 -105 81 -65 10 -80 10 -83 -1 -3 -7 -20 -30 -39 -51
l-34 -38 1 -133 c2 -202 2 -198 -16 -198 -16 0 -56 43 -87 92 -10 16 -22 35
-27 41 -29 35 -160 205 -188 245 -18 26 -43 58 -55 72 -12 14 -26 32 -32 41
-14 23 -92 126 -130 170 -16 20 -41 52 -55 70 -57 78 -106 113 -190 134 -3 1
-21 8 -40 17 -29 12 -101 39 -120 43 -3 1 -18 7 -35 14 -38 16 -187 72 -200
75 -5 2 -19 7 -30 11 -103 41 -172 67 -187 68 -10 1 -18 6 -18 11 0 5 -3 6 -7
3 -3 -4 -11 -2 -18 3 -6 5 -20 11 -31 13 -10 1 -24 6 -30 9 -20 13 -382 147
-409 152 -5 1 -25 10 -43 20 -19 10 -36 15 -40 12 -3 -3 -11 -1 -18 5 -14 11
-111 50 -134 53 -8 1 -25 8 -37 14 -13 7 -23 9 -23 5 0 -4 -4 -3 -8 2 -8 11
-107 48 -129 48 -7 0 -13 5 -13 10 0 6 -3 7 -7 4 -3 -4 -12 -2 -20 5 -11 9
-22 2 -52 -33 -22 -24 -46 -52 -55 -61 -9 -10 -16 -20 -16 -23 0 -3 -13 -19
-30 -36 -16 -18 -27 -37 -23 -43 3 -6 3 -8 -2 -4 -4 4 -18 -6 -32 -23 -47 -56
-53 -43 -53 110 0 157 5 148 -81 155 -24 2 -63 7 -86 11 -50 9 -54 24 -23 85
14 28 17 41 8 46 -7 4 -8 3 -4 -4z"/>
<path d="M7217 2236 c5 -23 -1 -26 -110 -60 -63 -20 -122 -45 -131 -55 -9 -10
-20 -35 -23 -56 -5 -31 -2 -40 21 -61 l26 -25 0 43 c0 24 4 49 8 55 8 13 191
73 223 73 13 0 20 -11 26 -42 6 -27 14 -43 23 -43 12 0 14 12 12 58 -3 50 -1
57 15 57 10 1 32 7 48 14 l30 13 -46 1 c-55 1 -97 16 -105 37 -10 24 -22 17
-17 -9z"/>
<path d="M7270 1995 c-107 -24 -214 -44 -238 -44 l-43 -1 7 -37 c4 -21 8 -39
9 -41 2 -2 31 7 66 19 35 12 98 24 140 27 68 4 79 2 98 -17 16 -16 21 -33 21
-75 0 -54 0 -54 -42 -74 -24 -11 -89 -28 -146 -38 -79 -14 -101 -21 -97 -32 3
-7 5 -23 5 -34 0 -15 4 -18 18 -13 9 4 67 18 127 32 61 13 121 31 133 39 55
36 63 128 16 184 -39 46 -32 54 58 73 45 9 83 18 84 20 5 5 -9 57 -15 56 -3
-1 -94 -21 -201 -44z"/>
<path d="M7195 1605 c-70 -25 -125 -104 -125 -180 0 -52 43 -130 88 -160 21
-14 58 -28 82 -31 40 -5 51 -2 95 28 76 51 98 89 93 164 -3 52 -9 69 -38 107
-56 72 -124 97 -195 72z m157 -104 c54 -60 30 -152 -47 -181 -15 -6 -47 -10
-72 -10 -38 0 -50 5 -79 34 -83 83 -8 203 120 193 40 -4 55 -10 78 -36z"/>
<path d="M1786 1213 c-3 -4 -15 -7 -24 -8 -10 -1 -69 -14 -130 -30 l-112 -30
0 -260 0 -261 138 17 c75 9 145 20 155 24 16 7 17 30 17 281 0 259 -1 274 -18
274 -10 0 -22 -3 -26 -7z"/>
<path d="M7090 1136 c0 -45 1 -48 23 -43 49 13 158 19 202 13 58 -9 85 -35 85
-81 0 -31 3 -35 25 -35 31 0 33 27 5 60 -24 27 -26 60 -5 60 10 0 15 10 15 28
l0 27 -167 -2 c-123 -2 -169 1 -175 10 -4 7 -8 -10 -8 -37z"/>
<path d="M7090 890 c0 -17 6 -32 13 -34 6 -3 85 -7 175 -10 l162 -6 0 32 0 33
-123 2 c-67 2 -146 5 -174 9 l-53 5 0 -31z"/>
<path d="M7512 898 c-18 -18 -15 -43 8 -63 14 -13 20 -14 20 -5 0 7 3 10 7 7
3 -4 12 1 18 10 10 14 10 22 -2 40 -17 26 -33 29 -51 11z"/>
<path d="M7380 729 c0 -19 -4 -21 -37 -15 -21 3 -78 9 -128 12 l-90 7 -32 -34
c-34 -34 -42 -66 -21 -87 8 -8 15 -3 27 21 l16 32 92 -1 c51 -1 109 -5 128 -8
34 -7 35 -8 35 -54 0 -27 5 -53 10 -58 18 -18 -9 -30 -113 -53 -54 -11 -124
-30 -157 -41 -33 -11 -70 -20 -83 -20 -53 0 -118 108 -88 144 12 15 5 66 -9
66 -11 0 -30 -57 -30 -92 0 -16 7 -43 16 -61 19 -38 101 -117 120 -117 8 0 14
-4 14 -9 0 -5 58 -43 130 -86 71 -42 132 -81 135 -86 11 -18 23 -9 27 21 4 24
1 30 -14 30 -22 0 -95 35 -120 58 -10 8 -18 12 -18 9 0 -4 -9 1 -19 11 -11 9
-31 25 -45 35 -47 32 -33 43 87 71 182 43 193 52 196 169 l1 47 55 0 c30 0 55
5 55 10 0 6 -9 10 -21 10 -33 0 -77 31 -88 62 -12 33 -31 37 -31 7z"/>
<path d="M4245 595 c-5 -2 -36 -11 -67 -20 l-58 -16 0 -125 0 -126 28 6 c15 2
48 8 75 11 l47 6 0 135 c0 74 -3 134 -7 133 -5 0 -12 -2 -18 -4z"/>
<path d="M6074 385 c-7 -29 4 -115 15 -115 4 0 23 25 42 55 18 30 41 55 49 55
8 0 24 -12 35 -27 11 -14 40 -52 65 -83 25 -32 59 -76 75 -99 30 -42 30 -42
80 -35 28 3 55 7 62 7 11 0 -10 31 -72 106 -65 79 -82 92 -161 116 -86 27
-114 30 -114 15 0 -16 -24 -7 -32 13 -11 25 -37 21 -44 -8z"/>
<path d="M5563 310 c-20 -8 -23 -17 -23 -59 0 -54 9 -66 40 -56 17 5 20 15 20
66 0 62 -1 63 -37 49z"/>
<path d="M6676 278 c-3 -7 -11 -35 -20 -62 -10 -30 -12 -54 -7 -59 5 -5 16 13
25 47 9 30 19 62 22 71 3 8 1 15 -5 15 -7 0 -13 -6 -15 -12z"/>
</g>
</svg>
